<svg width="65" height="32" viewBox="0 0 65 32" fill="none" xmlns="http://www.w3.org/2000/svg">
<path fill-rule="evenodd" clip-rule="evenodd" d="M49.7579 17.1568H0.859375V16.2395H49.7579V17.1568Z" fill="#665F5B"/>
<path fill-rule="evenodd" clip-rule="evenodd" d="M55.017 12.1392C52.6262 9.75887 50.955 6.3241 49.3359 1.24399L50.2099 0.965454C51.8168 6.00754 53.4337 9.26844 55.6641 11.4891C57.8843 13.6996 60.7612 14.9268 64.9993 15.7902L64.8162 16.689C60.4956 15.8088 57.418 14.5297 55.017 12.1392Z" fill="#665F5B"/>
<path fill-rule="evenodd" clip-rule="evenodd" d="M55.017 20.3308C52.6262 22.7111 50.955 26.1459 49.3359 31.226L50.2099 31.5045C51.8168 26.4624 53.4337 23.2015 55.6641 20.9808C57.8843 18.7704 60.7612 17.5431 64.9993 16.6798V15.781C60.7801 16.6983 57.418 17.9403 55.017 20.3308Z" fill="#665F5B"/>
</svg>
