<svg width="10" height="20" viewBox="0 0 10 20" fill="none" xmlns="http://www.w3.org/2000/svg">
<path fill-rule="evenodd" clip-rule="evenodd" d="M3.62695 7.13365C2.1006 5.614 1.03365 3.42113 0 0.177824L0.557959 0C1.58388 3.21903 2.61612 5.30089 4.04013 6.71866C5.45757 8.12989 7.29426 8.91338 10 9.46457L9.88311 10.0384C7.12466 9.47647 5.15986 8.65984 3.62695 7.13365Z" fill="#292929"/>
<path fill-rule="evenodd" clip-rule="evenodd" d="M3.62695 12.3634C2.1006 13.8831 1.03365 16.076 0 19.3193L0.557959 19.4971C1.58388 16.2781 2.61612 14.1962 4.04013 12.7784C5.45757 11.3672 7.29426 10.5837 10 10.0325V9.45871C7.3063 10.0443 5.15986 10.8373 3.62695 12.3634Z" fill="#292929"/>
</svg>
