<svg width="65" height="32" viewBox="0 0 65 32" fill="none" xmlns="http://www.w3.org/2000/svg">
<path fill-rule="evenodd" clip-rule="evenodd" d="M15.2421 17.1568H64.1406V16.2395H15.2421V17.1568Z" fill="#665F5B"/>
<path fill-rule="evenodd" clip-rule="evenodd" d="M9.98304 12.1392C12.3738 9.75887 14.045 6.3241 15.6641 1.24399L14.7901 0.965454C13.1832 6.00754 11.5663 9.26844 9.33586 11.4891C7.11566 13.6996 4.23878 14.9268 0.000683784 15.7902L0.18378 16.689C4.50443 15.8088 7.58198 14.5297 9.98304 12.1392Z" fill="#665F5B"/>
<path fill-rule="evenodd" clip-rule="evenodd" d="M9.98304 20.3308C12.3738 22.7111 14.045 26.1459 15.6641 31.226L14.7901 31.5045C13.1832 26.4624 11.5663 23.2015 9.33586 20.9808C7.11566 18.7704 4.23878 17.5431 0.000683784 16.6798V15.781C4.21993 16.6983 7.58198 17.9403 9.98304 20.3308Z" fill="#665F5B"/>
</svg>
