<svg width="19" height="10" viewBox="0 0 19 10" fill="none" xmlns="http://www.w3.org/2000/svg">
<path fill-rule="evenodd" clip-rule="evenodd" d="M11.6208 3.40909C13.0491 1.97443 15.1103 0.971566 18.1588 -7.30603e-09L18.3259 0.524445C15.3003 1.48874 13.3434 2.45898 12.0108 3.79745C10.6844 5.12976 9.94793 6.85613 9.42985 9.39934L8.8905 9.28947C9.41867 6.69671 10.1862 4.84992 11.6208 3.40909Z" fill="white"/>
<path fill-rule="evenodd" clip-rule="evenodd" d="M6.70513 3.40912C5.27676 1.97446 3.2156 0.971597 0.167112 3.05249e-05L-3.05405e-05 0.524475C3.02564 1.48877 4.98245 2.45901 6.31506 3.79748C7.64153 5.12979 8.37796 6.85616 8.89604 9.39937L9.43539 9.39937C8.88496 6.86747 8.13965 4.84996 6.70513 3.40912Z" fill="white"/>
</svg>
