<svg width="28" height="29" viewBox="0 0 28 29" fill="none" xmlns="http://www.w3.org/2000/svg">
<path fill-rule="evenodd" clip-rule="evenodd" d="M16.6163 12.3755C18.136 10.8492 20.3289 9.7822 23.5722 8.74855L23.75 9.30651C20.531 10.3324 18.4491 11.3647 17.0313 12.7887C15.6201 14.2061 14.8366 16.0428 14.2854 18.7485L13.7116 18.6317C14.2735 15.8732 15.0902 13.9084 16.6163 12.3755Z" fill="white"/>
<path fill-rule="evenodd" clip-rule="evenodd" d="M11.3856 12.3755C9.86595 10.8492 7.67308 9.7822 4.42978 8.74855L4.25195 9.30651C7.47098 10.3324 9.55284 11.3647 10.9706 12.7887C12.3818 14.2061 13.1653 16.0428 13.7165 18.7485L14.2903 18.7485C13.7047 16.0548 12.9118 13.9084 11.3856 12.3755Z" fill="white"/>
<path fill-rule="evenodd" clip-rule="evenodd" d="M14.25 -2.18558e-08L14.25 12L13.75 12L13.75 0L14.25 -2.18558e-08Z" fill="white"/>
<path d="M1 20C7 30.153 21 31.1683 27 20" stroke="white" stroke-width="0.5"/>
</svg>
