<svg width="790" height="733" viewBox="0 0 790 733" fill="none" xmlns="http://www.w3.org/2000/svg">
<g opacity="0.15">
<path d="M163.958 304.356L162.607 304.138L164.859 290.646L119.004 259.284L178.315 264.086C190.107 234.484 207.016 207.774 228.551 184.679C244.778 167.272 263.42 152.239 283.973 139.962L249.172 0L330.674 116.267C364.15 104.576 398.692 100.183 433.369 103.253C455.137 105.176 476.631 110.073 497.266 117.795L534.114 62.5327L526.894 125.898C559.921 138.284 588.989 157.014 613.295 181.555C627.98 196.397 640.685 213.203 651.057 231.524L790 199.166L684.384 276.159L683.579 275.054L783.777 202.017L650.375 233.079L650.129 232.629C639.771 214.24 627.051 197.379 612.326 182.51C588.034 157.982 558.965 139.307 525.911 126.989L525.42 126.812L532.121 67.9893L497.798 119.459L497.293 119.268C476.618 111.479 455.082 106.54 433.26 104.617C398.61 101.561 364.082 105.967 330.646 117.726L330.155 117.904L252.256 6.79348L285.542 140.617L285.105 140.876C264.498 153.126 245.801 168.186 229.547 185.607C208.012 208.702 191.13 235.425 179.393 265.055L179.202 265.519L124.013 261.044L166.347 290.005L163.958 304.356Z" fill="#A9A19C"/>
<path d="M591.923 733L512.755 619.83C482.254 631.916 450.346 637.85 417.825 637.468C393.56 637.182 369.445 633.321 346.15 625.982L313.191 673.387L319.606 612.518C297.429 605.52 276.726 595.125 258.043 581.647C231.294 562.345 208.844 536.494 193.095 506.864L56.3905 540.832L170.959 457.114C167.507 448.206 164.695 438.971 162.607 429.667C159.359 415.207 157.803 400.324 157.954 385.428L159.318 385.441C159.168 400.229 160.724 415.016 163.945 429.367C166.06 438.78 168.912 448.11 172.42 457.114L172.611 457.605L62.8047 537.844L193.805 505.296L194.051 505.773C209.718 535.416 232.113 561.267 258.834 580.556C277.545 594.061 298.302 604.429 320.534 611.399L321.066 611.563L315.102 668.257L345.59 624.4L346.068 624.55C369.377 631.944 393.519 635.831 417.825 636.118C450.319 636.514 482.24 630.539 512.728 618.384L513.233 618.179L513.547 618.616L588.812 726.193L556.304 595.453L556.782 595.207C581.865 582.002 604.179 564.609 623.135 543.533C642.336 522.17 657.389 497.779 667.884 471.042L668.089 470.537L723.797 478.708L676.973 446.023L677.178 445.519C682.76 431.386 686.649 416.599 688.737 401.593C691.412 382.427 691.139 362.987 687.959 343.794L689.31 343.575C692.517 362.892 692.777 382.481 690.088 401.784C688.014 416.721 684.152 431.427 678.638 445.519L729.311 480.891L668.962 472.038C658.427 498.734 643.346 523.084 624.158 544.433C605.216 565.496 582.93 582.889 557.901 596.148L591.923 733Z" fill="#A9A19C"/>
<path d="M332.093 282.53L207.248 277.823L207.521 276.978C214.644 254.237 226.722 232.752 242.471 214.854C258.288 196.874 278.172 182.114 299.954 172.142L300.677 171.815L332.093 282.53ZM209.076 276.527L330.264 281.097L299.79 173.725C278.459 183.601 259.012 198.13 243.481 215.754C228.06 233.284 216.173 254.278 209.076 276.527Z" fill="#A9A19C"/>
<path d="M422.492 259.107L348.688 146.892L349.507 146.605C372.502 138.489 396.522 134.055 420.896 133.414C445.051 132.787 469.084 135.924 492.285 142.718L493.144 142.963L422.492 259.107ZM350.803 147.601L422.452 256.57L491.056 143.795C468.252 137.206 444.669 134.178 420.937 134.792C396.999 135.392 373.417 139.716 350.803 147.601Z" fill="#A9A19C"/>
<path d="M494.373 268.697L513.233 154.831L514.011 155.118C537.948 163.807 559.634 176.862 578.454 193.928C596.018 209.848 610.375 228.646 621.156 249.804L621.593 250.649L494.373 268.697ZM514.311 156.673L496.024 267.087L619.491 249.572C608.832 228.905 594.721 210.53 577.526 194.937C559.047 178.172 537.785 165.294 514.311 156.673Z" fill="#A9A19C"/>
<path d="M330.155 585.931L329.377 585.603C313.191 578.783 297.784 570.161 283.59 560.012C259.394 542.687 238.773 521.024 222.287 495.638L221.796 494.874L354.488 454.849L354.283 455.954L330.155 585.931ZM223.925 495.651C240.219 520.574 260.554 541.841 284.368 558.893C298.248 568.824 313.301 577.282 329.104 584.007L352.728 456.786L223.925 495.651Z" fill="#A9A19C"/>
<path d="M424.853 603.16C400.875 603.16 376.883 600.391 353.451 594.921L352.55 594.716L419.326 481.628L497.129 594.702L496.16 594.934C475.048 599.872 453.39 602.614 431.759 603.092C429.466 603.133 427.16 603.16 424.853 603.16ZM354.679 593.802C379.954 599.627 405.884 602.301 431.745 601.714C452.94 601.25 474.188 598.59 494.891 593.816L419.435 484.151L354.679 593.802Z" fill="#A9A19C"/>
<path d="M544.308 569.056L509.74 441.058L637.806 462.257L637.41 463.075C627.843 482.842 615.833 501.353 601.722 518.132C585.386 537.544 566.335 554.501 545.1 568.538L544.308 569.056ZM511.609 442.749L545.127 566.873C565.939 553.014 584.622 536.33 600.671 517.259C614.51 500.808 626.315 482.664 635.772 463.307L511.609 442.749Z" fill="#A9A19C"/>
<path d="M646.499 435.165L527.768 371.5L528.955 370.913C550.845 360.054 574.073 352.224 597.996 347.654C617.103 343.998 636.673 342.443 656.175 343.002L656.803 343.016L656.844 343.644C657.731 357.817 657.471 372.168 656.066 386.287C654.455 402.507 651.33 418.686 646.758 434.36L646.499 435.165ZM530.743 371.554L645.666 433.173C650.088 417.826 653.118 402.016 654.687 386.151C656.066 372.304 656.339 358.254 655.492 344.353C636.304 343.848 617.048 345.403 598.228 349.005C574.878 353.452 552.169 361.05 530.743 371.554Z" fill="#A9A19C"/>
<path d="M200.929 442.122L200.588 441.44C197.121 434.442 194.255 427.13 192.031 419.681C187.418 404.185 185.589 387.979 186.586 371.5L186.627 370.94L187.186 370.872C212.939 367.639 239.018 367.121 264.703 369.317C277.64 370.422 290.687 372.25 303.461 374.746L305.126 375.074L200.929 442.122ZM187.923 372.127C187.009 388.251 188.837 404.103 193.341 419.272C195.456 426.407 198.199 433.418 201.475 440.13L301.523 375.728C289.336 373.409 276.917 371.704 264.58 370.64C239.182 368.485 213.403 368.976 187.923 372.127Z" fill="#A9A19C"/>
<path d="M0 449.161L2.56569 445.382C27.008 409.355 70.652 359.686 139.789 327.588C194.392 302.242 254.071 292.692 317.204 299.199C360.165 303.633 394.297 314.451 415.45 322.799C427.255 315.296 458.63 297.003 501.019 284.821C559.361 268.056 615.792 268.642 668.744 286.567C712.811 301.478 753.316 328.556 785.865 364.87L788.158 367.434L785.06 365.947C741.17 344.858 692.313 333.644 643.769 333.535C643.524 333.535 643.264 333.535 643.032 333.535C578.331 333.535 526.608 352.824 494.264 369.276C507.051 377.747 518.487 387.979 528.245 399.697C535.792 408.741 542.329 418.672 547.679 429.217L548.498 430.827L546.819 430.158C509.289 415.302 469.848 407.772 429.616 407.772C429.562 407.772 429.521 407.772 429.466 407.772C385.768 407.786 341.455 417.13 301.305 434.783L299.94 435.383L300.377 433.964C302.465 427.061 305.085 420.268 308.156 413.761C315.43 398.332 325.351 384.241 337.647 371.854C305.972 362.837 273.56 358.281 241.284 358.281C240.834 358.281 240.383 358.281 239.919 358.281C128.789 358.717 44.1489 413.611 3.58923 446.296L0 449.161ZM279.674 298.408C237.244 298.408 189.329 306.102 140.362 328.829C73.8864 359.686 31.0749 406.858 6.2914 442.367C32.2485 421.905 60.2118 404.676 89.4716 391.157C138.151 368.635 188.756 357.121 239.878 356.917C273.137 356.753 306.504 361.473 339.108 370.858L340.227 371.186L339.408 372.004C326.839 384.473 316.74 398.728 309.37 414.348C306.545 420.35 304.102 426.598 302.11 432.941C342.069 415.603 386.068 406.436 429.453 406.408C429.493 406.408 429.548 406.408 429.603 406.408C469.412 406.408 508.429 413.747 545.632 428.221C540.487 418.372 534.291 409.068 527.194 400.57C517.259 388.661 505.604 378.293 492.53 369.767L491.548 369.126L492.599 368.594C525.011 351.951 577.362 332.171 643.032 332.171C643.278 332.171 643.537 332.171 643.783 332.171C691.385 332.28 739.287 343.016 782.549 363.246C750.559 328.392 711.132 302.364 668.321 287.877C549.808 247.771 445.161 305.502 415.901 324.15L415.614 324.341L415.287 324.218C389.957 314.192 340.418 298.408 279.674 298.408Z" fill="#A9A19C"/>
</g>
</svg>
